<svg width="22" height="22" viewBox="0 0 22 22" fill="none" xmlns="http://www.w3.org/2000/svg">
<path d="M19.1702 7.06175C19.0859 6.9399 18.9733 6.84031 18.842 6.7715C18.7108 6.70269 18.5648 6.66672 18.4167 6.66667H5.88858L4.83075 4.1275C4.69205 3.79312 4.45718 3.50746 4.15592 3.30673C3.85467 3.106 3.50059 2.99925 3.13858 3H1V4.83334H3.13858L7.48725 15.2696C7.5569 15.4366 7.67441 15.5792 7.82497 15.6795C7.97553 15.7798 8.15241 15.8334 8.33333 15.8333H15.6667C16.0489 15.8333 16.3908 15.5959 16.5256 15.2393L19.2756 7.906C19.3276 7.76724 19.3451 7.61794 19.3268 7.47091C19.3084 7.32387 19.2547 7.18348 19.1702 7.06175ZM15.0314 14H8.94475L6.65308 8.5H17.0939L15.0314 14Z" fill="black"/>
<path d="M8.79167 19.5C9.55106 19.5 10.1667 18.8844 10.1667 18.125C10.1667 17.3656 9.55106 16.75 8.79167 16.75C8.03227 16.75 7.41667 17.3656 7.41667 18.125C7.41667 18.8844 8.03227 19.5 8.79167 19.5Z" fill="black"/>
<path d="M15.2083 19.5C15.9677 19.5 16.5833 18.8844 16.5833 18.125C16.5833 17.3656 15.9677 16.75 15.2083 16.75C14.4489 16.75 13.8333 17.3656 13.8333 18.125C13.8333 18.8844 14.4489 19.5 15.2083 19.5Z" fill="black"/>
</svg>
