<svg width="280" height="50" viewBox="0 0 280 50" fill="none" xmlns="http://www.w3.org/2000/svg">
<path d="M38.4128 50H31.8715L28.0441 36.3571H10.2991L6.54131 50H0L13.9177 0H24.4951L38.4128 50ZM11.8996 30.7857H26.5132L19.2064 4.5L11.8996 30.7857Z" fill="white"/>
<path d="M64.8586 32.7143C64.3019 31.4762 63.6756 30.6429 62.9797 30.2143C62.2838 29.7857 61.472 29.5714 60.5441 29.5714H53.0982V50H46.4177V0H60.4745C63.2581 0 65.6937 0.404762 67.7813 1.21429C69.869 1.97619 71.5855 3.04762 72.9309 4.42857C74.3226 5.76191 75.3665 7.33334 76.0623 9.14286C76.7582 10.9524 77.1062 12.9048 77.1062 15C77.1062 18.0952 76.3871 20.7857 74.9489 23.0714C73.5572 25.3571 71.4463 27.0714 68.6164 28.2143C69.2659 28.6905 69.7762 29.2381 70.1473 29.8571C70.5649 30.4286 70.9128 31 71.1912 31.5714L79.8897 50H72.5829L64.8586 32.7143ZM53.0982 5.57143V24H60.4745C62.4694 24 64.1163 23.7381 65.4153 23.2143C66.7143 22.6429 67.7349 21.9286 68.4772 21.0714C69.2659 20.2143 69.8226 19.2381 70.1473 18.1429C70.4721 17.0476 70.6345 15.9286 70.6345 14.7857C70.6345 13.6905 70.4721 12.5952 70.1473 11.5C69.8226 10.4048 69.2659 9.42857 68.4772 8.57143C67.7349 7.66667 66.7143 6.95238 65.4153 6.42857C64.1163 5.85714 62.4694 5.57143 60.4745 5.57143H53.0982Z" fill="white"/>
<path d="M116.099 5.57143H95.6395V22.2143H114.011V27.7857H95.6395V44.4286H116.099V50H88.959V0H116.099V5.57143Z" fill="white"/>
<path d="M162.075 50H152.611L134.239 8.78572V50H127.559V0H137.023L155.394 41.2857V0H162.075V50Z" fill="white"/>
<path d="M201.691 0V5.57143H188.886V50H182.206V5.57143H169.402V0H201.691Z" fill="white"/>
<path d="M236.111 5.57143H215.652V22.2143H234.024V27.7857H215.652V44.4286H236.111V50H208.972V0H236.111V5.57143Z" fill="white"/>
<path d="M261.489 18.5714L272.276 0H279.582L265.178 24.8571L280 50H272.484L261.142 30.7857L250.007 50H242.701L257.523 24.5714L243.118 0H250.634L261.489 18.5714Z" fill="white"/>
</svg>
