<svg width="22" height="22" viewBox="0 0 22 22" fill="none" xmlns="http://www.w3.org/2000/svg">
<path d="M19.5015 17.6682L14.777 12.9437C15.6505 11.6163 16.0003 10.012 15.7588 8.44146C15.5173 6.87091 14.7017 5.44584 13.4698 4.44214C12.2379 3.43844 10.6774 2.92752 9.09048 3.0083C7.50353 3.08908 6.003 3.75581 4.8794 4.8794C3.75581 6.003 3.08908 7.50353 3.0083 9.09048C2.92752 10.6774 3.43844 12.2379 4.44214 13.4698C5.44584 14.7017 6.87091 15.5173 8.44146 15.7588C10.012 16.0003 11.6163 15.6505 12.9437 14.777L17.6682 19.5015L19.5015 17.6682ZM4.83488 9.41821C4.83488 6.89096 6.89096 4.83488 9.41821 4.83488C11.9455 4.83488 14.0015 6.89096 14.0015 9.41821C14.0015 11.9455 11.9455 14.0015 9.41821 14.0015C6.89096 14.0015 4.83488 11.9455 4.83488 9.41821Z" fill="white"/>
</svg>
