<svg width="22" height="22" viewBox="0 0 22 22" fill="none" xmlns="http://www.w3.org/2000/svg">
<path d="M14.2667 17.3334C11.5449 17.3299 8.93554 16.2471 7.01093 14.3225C5.08632 12.3979 4.00353 9.78855 4 7.06674C4 6.25341 4.32309 5.47339 4.89821 4.89828C5.47332 4.32317 6.25334 4.00008 7.06667 4.00008C7.23889 3.99876 7.41083 4.0144 7.58 4.04674C7.74354 4.07094 7.90431 4.11114 8.06 4.16674C8.1695 4.20516 8.26707 4.2715 8.34307 4.35919C8.41907 4.44688 8.47087 4.5529 8.49333 4.66674L9.40667 8.66674C9.43128 8.77532 9.42832 8.88833 9.39804 8.99546C9.36777 9.1026 9.31114 9.20045 9.23333 9.28008C9.14667 9.37341 9.14 9.38008 8.32 9.80674C8.97666 11.2473 10.1288 12.4042 11.5667 13.0667C12 12.2401 12.0067 12.2334 12.1 12.1467C12.1796 12.0689 12.2775 12.0123 12.3846 11.982C12.4917 11.9518 12.6048 11.9488 12.7133 11.9734L16.7133 12.8867C16.8235 12.9123 16.9254 12.9655 17.0094 13.0413C17.0934 13.1171 17.1567 13.2131 17.1933 13.3201C17.2496 13.4783 17.292 13.6412 17.32 13.8067C17.3468 13.9743 17.3602 14.1437 17.36 14.3134C17.3477 15.1233 17.0155 15.8954 16.436 16.4612C15.8564 17.027 15.0766 17.3405 14.2667 17.3334ZM7.06667 5.33341C6.6075 5.33517 6.16764 5.51835 5.84295 5.84303C5.51827 6.16771 5.33509 6.60757 5.33333 7.06674C5.3351 9.43547 6.27685 11.7067 7.9518 13.3816C9.62674 15.0566 11.8979 15.9983 14.2667 16.0001C14.7258 15.9983 15.1657 15.8151 15.4904 15.4905C15.8151 15.1658 15.9982 14.7259 16 14.2667V14.0467L12.9067 13.3334L12.7133 13.7001C12.4133 14.2801 12.1933 14.7001 11.6333 14.4734C10.5286 14.078 9.5258 13.4414 8.69782 12.61C7.86985 11.7786 7.23748 10.7731 6.84667 9.66674C6.60667 9.14674 7.06 8.90674 7.63333 8.60674L8 8.42674L7.28667 5.33341H7.06667Z" fill="#969696"/>
</svg>
