<svg width="40" height="40" viewBox="0 0 40 40" fill="none" xmlns="http://www.w3.org/2000/svg">
<path d="M33 32V33H34V32H33ZM3 32H2V33H3V32ZM3 12V11H2V12H3ZM33 12H34V11H33V12ZM34.9998 23C34.9998 23.5523 35.4475 24 35.9998 24C36.5521 24 36.9998 23.5523 36.9998 23H34.9998ZM35.9998 9H36.9998V8L35.9998 8L35.9998 9ZM12.9998 8.00001C12.4475 8.00001 11.9998 8.44773 11.9998 9.00001C11.9998 9.5523 12.4475 10 12.9998 10L12.9998 8.00001ZM33 31H3V33H33V31ZM4 32V12H2V32H4ZM3 13H33V11H3V13ZM32 12V32H34V12H32ZM36.9998 23V9H34.9998V23H36.9998ZM12.9998 10L35.9998 10L35.9998 8L12.9998 8.00001L12.9998 10Z" fill="white"/>
</svg>
